# Blender 4.2.1 LTS
# www.blender.org
mtllib track_concrete_bit.mtl
o track_concrete
v 0.473421 -0.031342 0.070632
v 0.460421 0.028658 0.051632
v -0.454579 0.028658 0.051632
v -0.466579 -0.031342 0.070632
v 0.473421 -0.031342 -0.069368
v 0.459421 0.028658 -0.054368
v -0.466579 -0.031342 -0.069368
v -0.454579 0.028658 -0.054368
v -0.224579 0.028658 0.050632
v 0.236421 0.028658 0.051632
v -0.084079 0.012658 0.050632
v -0.084079 0.003658 0.070632
v 0.093921 0.012658 0.051632
v -0.224579 0.028658 -0.053368
v 0.236421 0.028658 -0.054368
v -0.084079 0.003658 -0.069368
v 0.093921 0.012658 -0.054368
v -0.084079 0.012658 -0.053368
v 0.473421 0.018658 -0.069368
v 0.473421 0.018658 0.070632
v -0.466579 0.018658 -0.069368
v -0.466579 0.018658 0.070632
v -0.224579 -0.031342 -0.069368
v 0.236421 -0.032342 -0.069368
v -0.224579 0.017658 0.070632
v 0.093921 -0.031342 -0.069368
v -0.084079 -0.031342 -0.069368
v -0.224579 -0.031342 0.070632
v 0.236421 -0.032342 0.070632
v -0.224579 0.017658 -0.069368
v 0.093921 -0.031342 0.070632
v -0.084079 -0.031342 0.070632
v 0.093921 0.003658 -0.069368
v 0.093921 0.003658 0.070632
v 0.236421 0.018158 -0.069368
v 0.236421 0.018158 0.070632
v -0.084079 -0.031342 0.070632
v -0.084079 -0.031342 -0.069368
vn 0.9497 0.3133 -0.0009
vn 0.5955 0.8034 -0.0024
vn 0.9612 0.2758 -0.0008
vn -1.0000 -0.0021 -0.0000
vn -1.0000 0.0025 -0.0000
vn -1.0000 0.0023 -0.0000
vn -0.0000 -0.7071 -0.7071
vn -0.0001 -1.0000 -0.0000
vn -1.0000 -0.0000 -0.0000
vn -0.0000 -0.7071 0.7071
vn -0.0000 -1.0000 -0.0000
vn -1.0000 -0.0021 0.0025
vn 1.0000 -0.0000 -0.0000
vn -0.0000 0.0002 1.0000
vn -0.0000 0.0017 1.0000
vn 0.0019 0.0003 1.0000
vn -0.0000 -0.0000 1.0000
vn -0.0000 -0.0000 -1.0000
vn -0.0168 0.2901 -0.9569
vn -0.0267 0.4830 -0.8752
vn 0.0117 0.0768 0.9970
vn -0.0322 0.6884 0.7246
vn 0.0509 0.0983 0.9939
vn 0.0117 0.0813 -0.9966
vn -0.0325 0.6474 -0.7614
vn 0.0001 0.0002 -1.0000
vn -0.0000 -0.0002 -1.0000
vn -0.0002 -0.0000 -1.0000
vn -0.0009 0.8255 -0.5645
vn -0.0004 0.3397 -0.9405
vn -0.0152 0.3062 0.9518
vn 0.0050 1.0000 -0.0000
vn 0.0048 1.0000 -0.0000
vn -0.0291 0.5282 0.8486
vn 0.0047 1.0000 -0.0000
vn 0.0384 0.1115 -0.9930
vn 0.0002 0.0017 1.0000
vn -0.0010 0.8800 0.4751
vn -0.0471 0.8838 0.4655
vn -0.0443 0.8310 -0.5545
vn 0.0048 1.0000 -0.0005
vn 0.0050 1.0000 -0.0002
vn 0.0002 0.0025 -1.0000
vn -0.0004 0.4024 0.9155
vt 0.145247 0.687576
vt -0.000781 0.718868
vt -0.000781 0.687576
vt 0.302823 0.718868
vt 0.156795 0.687576
vt 0.302823 0.687576
vt 0.415966 0.652658
vt 0.624985 0.652658
vt 0.375650 0.652658
vt 0.415966 0.504118
vt 0.250982 0.504118
vt 0.375650 0.504118
vt 0.250982 0.652658
vt 0.624985 0.504118
vt 0.145247 0.718868
vt 0.156795 0.718868
vt 0.145247 0.656284
vt -0.000781 0.656284
vt 0.244337 0.812742
vt -0.000781 0.844034
vt -0.000781 0.812742
vt 0.001647 0.652658
vt 0.001647 0.504118
vt -0.000781 0.781451
vt 0.302823 0.656284
vt 0.156795 0.656284
vt 0.244337 0.718868
vt 0.366896 0.750160
vt 0.244337 0.750160
vt 0.366896 0.812742
vt 0.612015 0.844034
vt 0.366896 0.844034
vt 0.612015 0.750160
vt 0.366896 0.781451
vt 0.734574 0.750160
vt 0.979692 0.781451
vt 0.734574 0.781451
vt -0.000781 0.750160
vt 0.612015 0.812742
vt 0.612015 0.781451
vt 0.250000 0.851064
vt 0.000000 1.000000
vt 0.000000 0.851064
vt 0.734574 0.812742
vt 0.750000 0.851064
vt 0.625000 1.000000
vt 0.625000 0.851064
vt 0.244337 0.781451
vt 0.979692 0.718868
vt 0.734574 0.718868
vt 0.244337 0.844034
vt 0.366896 0.718868
vt 0.612015 0.718868
vt 0.979692 0.844034
vt 0.734574 0.844034
vt 0.375000 1.000000
vt 0.375000 0.851064
vt 1.000000 1.000000
vt 0.750000 1.000000
vt 0.250000 1.000000
vt 0.749652 0.504118
vt 0.998987 0.504118
vt 0.749652 0.652658
vt 0.979692 0.750160
vt 0.979692 0.812742
vt 1.000000 0.851064
vt 0.998987 0.652658
s 1
usemtl Default_OBJ.007
f 19/1/1 2/2/2 20/3/3
f 3/4/4 21/5/5 22/6/6
f 37/7/7 31/8/8 32/9/9
f 38/10/10 23/11/11 27/12/9
f 28/13/11 37/7/7 32/9/9
f 26/14/8 38/10/10 27/12/9
f 19/1/1 6/15/2 2/2/2
f 3/4/4 8/16/12 21/5/5
f 5/17/13 20/3/3 1/18/13
f 25/19/14 3/20/15 22/21/16
f 23/11/11 4/22/11 7/23/11
f 4/24/17 25/19/14 22/21/16
f 4/25/9 21/5/5 7/26/9
f 24/27/18 33/28/19 35/29/20
f 12/30/21 13/31/22 11/32/23
f 16/33/24 17/34/25 33/28/19
f 30/35/26 8/36/27 14/37/28
f 35/29/20 6/24/29 19/38/30
f 29/37/17 34/39/31 31/40/17
f 9/41/32 8/42/33 3/43/33
f 36/44/34 13/31/22 34/39/31
f 34/39/31 32/34/17 31/40/17
f 10/45/33 17/46/35 13/47/35
f 28/48/17 12/30/21 25/19/14
f 7/49/18 30/35/26 23/50/18
f 1/36/17 36/44/34 29/37/17
f 30/35/26 18/40/36 16/33/24
f 25/19/14 11/32/23 9/51/37
f 16/33/24 26/52/18 27/53/18
f 23/50/18 16/33/24 27/53/18
f 5/2/18 35/29/20 19/38/30
f 36/44/34 2/54/38 10/55/39
f 35/29/20 17/34/25 15/48/40
f 13/47/35 18/56/33 11/57/41
f 10/45/33 6/58/35 15/59/33
f 26/14/8 37/7/7 38/10/10
f 11/57/41 14/60/42 9/41/32
f 24/61/8 31/8/8 26/14/8
f 5/62/11 29/63/8 24/61/8
f 38/10/10 28/13/11 23/11/11
f 5/17/13 19/1/1 20/3/3
f 25/19/14 9/51/37 3/20/15
f 23/11/11 28/13/11 4/22/11
f 4/24/17 28/48/17 25/19/14
f 4/25/9 22/6/6 21/5/5
f 24/27/18 26/52/18 33/28/19
f 12/30/21 34/39/31 13/31/22
f 16/33/24 18/40/36 17/34/25
f 30/35/26 21/64/43 8/36/27
f 35/29/20 15/48/40 6/24/29
f 29/37/17 36/44/34 34/39/31
f 9/41/32 14/60/42 8/42/33
f 36/44/34 10/55/39 13/31/22
f 34/39/31 12/30/21 32/34/17
f 10/45/33 15/59/33 17/46/35
f 28/48/17 32/34/17 12/30/21
f 7/49/18 21/64/43 30/35/26
f 1/36/17 20/65/44 36/44/34
f 30/35/26 14/37/28 18/40/36
f 25/19/14 12/30/21 11/32/23
f 16/33/24 33/28/19 26/52/18
f 23/50/18 30/35/26 16/33/24
f 5/2/18 24/27/18 35/29/20
f 36/44/34 20/65/44 2/54/38
f 35/29/20 33/28/19 17/34/25
f 13/47/35 17/46/35 18/56/33
f 10/45/33 2/66/35 6/58/35
f 26/14/8 31/8/8 37/7/7
f 11/57/41 18/56/33 14/60/42
f 24/61/8 29/63/8 31/8/8
f 5/62/11 1/67/11 29/63/8
f 38/10/10 37/7/7 28/13/11
